<svg width="143" height="34" viewBox="0 0 143 34" fill="none" xmlns="http://www.w3.org/2000/svg">
<path d="M58.56 23.64V27H45.12V24.368L48.116 20.84H46.072V17.928H50.58L52.792 15.296H45.316V11.936H58.308V14.568L55.452 17.956H57.58V20.868H52.988L50.636 23.64H58.56ZM68.8892 23.724C69.6732 23.724 70.3638 23.612 70.9612 23.388C71.5772 23.1453 72.1465 22.772 72.6692 22.268L74.9932 24.788C73.5745 26.412 71.5025 27.224 68.7772 27.224C67.0785 27.224 65.5758 26.8973 64.2692 26.244C62.9625 25.572 61.9545 24.648 61.2452 23.472C60.5358 22.296 60.1812 20.9613 60.1812 19.468C60.1812 17.9933 60.5265 16.668 61.2172 15.492C61.9265 14.2973 62.8878 13.3733 64.1012 12.72C65.3332 12.048 66.7145 11.712 68.2452 11.712C69.6825 11.712 70.9892 12.02 72.1652 12.636C73.3412 13.2333 74.2745 14.1107 74.9652 15.268C75.6745 16.4067 76.0292 17.76 76.0292 19.328L64.8852 21.484C65.2025 22.2307 65.6972 22.7907 66.3692 23.164C67.0598 23.5373 67.8998 23.724 68.8892 23.724ZM68.2452 15.016C67.1438 15.016 66.2478 15.3707 65.5572 16.08C64.8665 16.7893 64.5025 17.7693 64.4652 19.02L71.8012 17.592C71.5958 16.808 71.1758 16.1827 70.5412 15.716C69.9065 15.2493 69.1412 15.016 68.2452 15.016ZM88.1212 11.712C89.9879 11.712 91.4906 12.272 92.6292 13.392C93.7866 14.512 94.3652 16.1733 94.3652 18.376V27H89.9972V19.048C89.9972 17.8533 89.7359 16.9667 89.2132 16.388C88.6906 15.7907 87.9346 15.492 86.9452 15.492C85.8439 15.492 84.9666 15.8373 84.3132 16.528C83.6599 17.2 83.3332 18.208 83.3332 19.552V27H78.9652V11.936H83.1372V13.7C83.7159 13.0653 84.4346 12.58 85.2932 12.244C86.1519 11.8893 87.0946 11.712 88.1212 11.712ZM98.3246 11.936H102.693V27H98.3246V11.936ZM100.509 9.836C99.7059 9.836 99.0526 9.60267 98.5486 9.136C98.0446 8.66933 97.7926 8.09067 97.7926 7.4C97.7926 6.70933 98.0446 6.13067 98.5486 5.664C99.0526 5.19733 99.7059 4.964 100.509 4.964C101.311 4.964 101.965 5.188 102.469 5.636C102.973 6.084 103.225 6.644 103.225 7.316C103.225 8.044 102.973 8.65067 102.469 9.136C101.965 9.60267 101.311 9.836 100.509 9.836ZM115.818 26.272C115.389 26.5893 114.857 26.832 114.222 27C113.606 27.1493 112.962 27.224 112.29 27.224C110.48 27.224 109.089 26.7667 108.118 25.852C107.148 24.9373 106.662 23.5933 106.662 21.82V8.604H111.03V12.272H114.754V15.632H111.03V21.764C111.03 22.3987 111.189 22.8933 111.506 23.248C111.824 23.584 112.281 23.752 112.878 23.752C113.55 23.752 114.148 23.5653 114.67 23.192L115.818 26.272ZM127.442 11.712C129.308 11.712 130.811 12.272 131.95 13.392C133.107 14.512 133.686 16.1733 133.686 18.376V27H129.318V19.048C129.318 17.8533 129.056 16.9667 128.534 16.388C128.011 15.7907 127.255 15.492 126.266 15.492C125.164 15.492 124.287 15.8373 123.634 16.528C122.98 17.2 122.654 18.208 122.654 19.552V27H118.286V6.224H122.654V13.504C123.232 12.9253 123.932 12.4867 124.754 12.188C125.575 11.8707 126.471 11.712 127.442 11.712ZM139.297 27.224C138.532 27.224 137.888 26.9627 137.365 26.44C136.842 25.9173 136.581 25.264 136.581 24.48C136.581 23.6773 136.842 23.0333 137.365 22.548C137.888 22.044 138.532 21.792 139.297 21.792C140.062 21.792 140.706 22.044 141.229 22.548C141.752 23.0333 142.013 23.6773 142.013 24.48C142.013 25.264 141.752 25.9173 141.229 26.44C140.706 26.9627 140.062 27.224 139.297 27.224Z" fill="#2D60FF"/>
<g clip-path="url(#clip0_61_315)">
<path d="M8.30477 20.7901L7.36334 20.2715L10.8937 14.3723L11.8351 14.8909L14.7939 9.93163V4H14.1551L0 27.6617L0.302603 28.1803L5.64859 25.1983L8.30477 20.7901Z" fill="#2D60FF"/>
<path d="M6.35461 26.3975L1.00862 29.3795L1.34485 29.8981H9.11166L11.2635 28.6988H20.3752L22.5271 29.8981H29.655L29.9913 29.3795L24.6453 26.3975H6.35461Z" fill="#2D60FF"/>
<path d="M16.2059 4V9.93163L19.0302 14.6316L19.9716 14.1129L23.502 20.0122L22.5606 20.5308L25.3512 25.1983L30.6972 28.1803L30.9998 27.6617L16.8447 4H16.2059Z" fill="#2D60FF"/>
</g>
<defs>
<clipPath id="clip0_61_315">
<rect width="31" height="26" fill="white" transform="translate(0 4)"/>
</clipPath>
</defs>
</svg>
