<svg width="162" height="163" viewBox="0 0 162 163" fill="none" xmlns="http://www.w3.org/2000/svg">
<g filter="url(#filter0_d_276_325)">
<path fill-rule="evenodd" clip-rule="evenodd" d="M80.9712 152.594C120.168 152.594 151.942 120.673 151.942 81.2968C151.942 41.9207 120.168 10 80.9712 10C41.7749 10 10 41.9207 10 81.2968C10 120.673 41.7749 152.594 80.9712 152.594Z" fill="#ECECEE"/>
</g>
<circle cx="129.5" cy="132.5" r="19.5" fill="#2D60FF"/>
<g clip-path="url(#clip0_276_325)">
<path d="M122.547 138.709C122.26 138.702 121.981 138.81 121.773 139.008C121.565 139.206 121.444 139.479 121.437 139.766C121.43 140.053 121.538 140.331 121.736 140.539C121.934 140.747 122.207 140.868 122.494 140.875L137.656 141.245C137.943 141.252 138.222 141.144 138.43 140.946C138.638 140.748 138.759 140.475 138.766 140.188C138.773 139.901 138.665 139.623 138.467 139.414C138.269 139.206 137.996 139.086 137.709 139.079L122.547 138.709ZM135.692 130.682C135.594 130.579 135.476 130.496 135.346 130.438C135.216 130.381 135.076 130.349 134.934 130.346C134.791 130.342 134.65 130.367 134.517 130.418C134.384 130.47 134.263 130.546 134.16 130.645L131.347 133.324L131.607 122.675C131.614 122.388 131.506 122.11 131.308 121.902C131.11 121.694 130.837 121.573 130.55 121.566C130.263 121.559 129.985 121.666 129.776 121.864C129.568 122.062 129.448 122.335 129.441 122.622L129.181 133.272L126.502 130.458C126.303 130.25 126.031 130.129 125.743 130.123C125.456 130.116 125.178 130.223 124.97 130.421C124.762 130.62 124.641 130.892 124.634 131.18C124.627 131.467 124.735 131.745 124.933 131.953L129.416 136.659C129.614 136.867 129.887 136.988 130.174 136.995C130.461 137.002 130.74 136.895 130.948 136.697L135.655 132.215C135.758 132.116 135.841 131.999 135.898 131.869C135.956 131.739 135.988 131.598 135.991 131.456C135.994 131.314 135.97 131.172 135.919 131.039C135.867 130.906 135.79 130.785 135.692 130.682Z" fill="#FDFDFD"/>
</g>
<g clip-path="url(#clip1_276_325)">
<path d="M79.0511 80.3473C83.2203 80.3473 86.8305 78.852 89.7802 75.9017C92.73 72.952 94.2253 69.3428 94.2253 65.1732C94.2253 61.005 92.73 57.3953 89.7798 54.4446C86.8295 51.4953 83.2198 50 79.0511 50C74.8815 50 71.2723 51.4953 68.3225 54.4451C65.3727 57.3948 63.877 61.0045 63.877 65.1732C63.877 69.3428 65.3727 72.9525 68.323 75.9022C71.2732 78.8515 74.8829 80.3473 79.0511 80.3473Z" fill="#B1B1B1"/>
<path d="M105.602 98.4435C105.517 97.2159 105.345 95.8768 105.091 94.4628C104.836 93.0381 104.506 91.6913 104.112 90.4604C103.705 89.1881 103.151 87.9317 102.467 86.7277C101.757 85.478 100.922 84.3898 99.9859 83.4943C99.0068 82.5575 97.808 81.8044 96.4218 81.255C95.0404 80.7085 93.5096 80.4316 91.872 80.4316C91.2289 80.4316 90.6069 80.6955 89.4058 81.4775C88.6665 81.9596 87.8018 82.5172 86.8367 83.1338C86.0114 83.6597 84.8934 84.1523 83.5125 84.5984C82.1652 85.0343 80.7973 85.2554 79.4471 85.2554C78.097 85.2554 76.7295 85.0343 75.3808 84.5984C74.0013 84.1528 72.8833 83.6602 72.059 83.1343C71.103 82.5234 70.2378 81.9659 69.4875 81.477C68.2878 80.695 67.6654 80.4312 67.0223 80.4312C65.3842 80.4312 63.8538 80.7085 62.4729 81.2555C61.0877 81.8039 59.8884 82.5571 58.9084 83.4948C57.9726 84.3907 57.1377 85.4785 56.4282 86.7277C55.7443 87.9317 55.1906 89.1876 54.783 90.4609C54.3893 91.6918 54.0601 93.0381 53.8044 94.4628C53.551 95.8749 53.379 97.2145 53.2939 98.4449C53.2103 99.6504 53.168 100.902 53.168 102.165C53.168 105.454 54.2134 108.116 56.2749 110.08C58.3109 112.017 61.005 113 64.2811 113H94.616C97.8921 113 100.585 112.018 102.622 110.08C104.684 108.118 105.729 105.455 105.729 102.165C105.729 100.895 105.686 99.6432 105.602 98.4435Z" fill="#B1B1B1"/>
</g>
<defs>
<filter id="filter0_d_276_325" x="0" y="0" width="161.942" height="162.594" filterUnits="userSpaceOnUse" color-interpolation-filters="sRGB">
<feFlood flood-opacity="0" result="BackgroundImageFix"/>
<feColorMatrix in="SourceAlpha" type="matrix" values="0 0 0 0 0 0 0 0 0 0 0 0 0 0 0 0 0 0 127 0" result="hardAlpha"/>
<feOffset/>
<feGaussianBlur stdDeviation="5"/>
<feColorMatrix type="matrix" values="0 0 0 0 0 0 0 0 0 0 0 0 0 0 0 0 0 0 0.01 0"/>
<feBlend mode="normal" in2="BackgroundImageFix" result="effect1_dropShadow_276_325"/>
<feBlend mode="normal" in="SourceGraphic" in2="effect1_dropShadow_276_325" result="shape"/>
</filter>
<clipPath id="clip0_276_325">
<rect width="26" height="26" fill="white" transform="translate(117 120)"/>
</clipPath>
<clipPath id="clip1_276_325">
<rect width="63" height="63" fill="white" transform="translate(48 50)"/>
</clipPath>
</defs>
</svg>
