<svg width="248" height="58" viewBox="0 0 248 58" fill="none" xmlns="http://www.w3.org/2000/svg">
<path d="M103.838 40.2682V46H80.9106V41.5101L86.0214 35.4918H82.5346V30.5242H90.2247L93.9981 26.0344H81.2449V20.3026H103.408V24.7925L98.5358 30.572H102.166V35.5395H94.3325L90.3202 40.2682H103.838ZM121.458 40.4115C122.795 40.4115 123.974 40.2205 124.993 39.8384C126.043 39.4244 127.015 38.7875 127.906 37.9278L131.871 42.2266C129.451 44.9969 125.916 46.3821 121.267 46.3821C118.369 46.3821 115.806 45.8249 113.577 44.7104C111.348 43.564 109.628 41.9878 108.418 39.9816C107.208 37.9755 106.603 35.6987 106.603 33.1513C106.603 30.6357 107.192 28.3748 108.37 26.3687C109.58 24.3307 111.22 22.7545 113.29 21.64C115.392 20.4936 117.748 19.9205 120.359 19.9205C122.811 19.9205 125.04 20.4459 127.046 21.4967C129.053 22.5157 130.645 24.0123 131.823 25.9866C133.033 27.929 133.638 30.2376 133.638 32.9125L114.628 36.5904C115.169 37.8641 116.013 38.8194 117.159 39.4562C118.337 40.0931 119.77 40.4115 121.458 40.4115ZM120.359 25.5567C118.481 25.5567 116.952 26.1617 115.774 27.3718C114.596 28.5818 113.975 30.2536 113.911 32.3871L126.426 29.9511C126.075 28.6136 125.359 27.5469 124.276 26.7508C123.193 25.9547 121.888 25.5567 120.359 25.5567ZM154.266 19.9205C157.45 19.9205 160.013 20.8758 161.956 22.7864C163.93 24.6969 164.917 27.531 164.917 31.2885V46H157.466V32.4348C157.466 30.3969 157.02 28.8843 156.128 27.8972C155.237 26.8782 153.947 26.3687 152.259 26.3687C150.381 26.3687 148.884 26.9578 147.77 28.136C146.655 29.2824 146.098 31.0019 146.098 33.2946V46H138.647V20.3026H145.763V23.3118C146.751 22.2291 147.977 21.4012 149.441 20.828C150.906 20.223 152.514 19.9205 154.266 19.9205ZM171.671 20.3026H179.123V46H171.671V20.3026ZM175.397 16.7202C174.028 16.7202 172.913 16.3222 172.053 15.5261C171.194 14.73 170.764 13.7429 170.764 12.5647C170.764 11.3865 171.194 10.3994 172.053 9.60329C172.913 8.80721 174.028 8.40917 175.397 8.40917C176.766 8.40917 177.881 8.79129 178.741 9.55553C179.6 10.3198 180.03 11.2751 180.03 12.4214C180.03 13.6633 179.6 14.6982 178.741 15.5261C177.881 16.3222 176.766 16.7202 175.397 16.7202ZM201.514 44.7581C200.781 45.2995 199.874 45.7134 198.791 46C197.74 46.2547 196.642 46.3821 195.496 46.3821C192.407 46.3821 190.034 45.602 188.379 44.0416C186.723 42.4813 185.895 40.1886 185.895 37.1635V14.6186H193.346V20.8758H199.699V26.6075H193.346V37.068C193.346 38.1507 193.617 38.9945 194.158 39.5995C194.699 40.1727 195.48 40.4593 196.499 40.4593C197.645 40.4593 198.664 40.1409 199.556 39.504L201.514 44.7581ZM221.341 19.9205C224.526 19.9205 227.089 20.8758 229.032 22.7864C231.006 24.6969 231.993 27.531 231.993 31.2885V46H224.542V32.4348C224.542 30.3969 224.096 28.8843 223.204 27.8972C222.313 26.8782 221.023 26.3687 219.335 26.3687C217.457 26.3687 215.96 26.9578 214.845 28.136C213.731 29.2824 213.174 31.0019 213.174 33.2946V46H205.722V10.5586H213.174V22.9774C214.161 21.9903 215.355 21.242 216.756 20.7325C218.157 20.1911 219.686 19.9205 221.341 19.9205ZM241.565 46.3821C240.26 46.3821 239.161 45.9363 238.27 45.0447C237.378 44.1531 236.932 43.0386 236.932 41.7012C236.932 40.3319 237.378 39.2333 238.27 38.4054C239.161 37.5456 240.26 37.1158 241.565 37.1158C242.871 37.1158 243.969 37.5456 244.861 38.4054C245.753 39.2333 246.198 40.3319 246.198 41.7012C246.198 43.0386 245.753 44.1531 244.861 45.0447C243.969 45.9363 242.871 46.3821 241.565 46.3821Z" fill="#2D60FF"/>
<path d="M15.8059 35.9895L14.0141 34.9705L20.7332 23.3796L22.5249 24.3986L28.1562 14.6546V3H26.9403L0 49.491L0.575922 50.51L10.7505 44.6509L15.8059 35.9895Z" fill="#2D60FF"/>
<path d="M12.0943 47.0076L1.91968 52.8667L2.55959 53.8857H17.3416L21.437 51.5293H38.7787L42.8741 53.8857H56.4403L57.0802 52.8667L46.9056 47.0076H12.0943Z" fill="#2D60FF"/>
<path d="M30.8435 3V14.6546L36.2188 23.8891L38.0105 22.8701L44.7296 34.4611L42.9379 35.48L48.2491 44.6509L58.4238 50.51L58.9997 49.491L32.0593 3H30.8435Z" fill="#2D60FF"/>
</svg>
